<svg xmlns="http://www.w3.org/2000/svg" version="1.1" xmlns:xlink="http://www.w3.org/1999/xlink" width="200" height="200"><svg xmlns="http://www.w3.org/2000/svg" version="1.1" xmlns:xlink="http://www.w3.org/1999/xlink" viewBox="0 0 200 200"><rect width="200" height="200" fill="url('#gradient')"></rect><defs><linearGradient id="SvgjsLinearGradient1001" gradientTransform="rotate(108 0.5 0.5)"><stop offset="0%" stop-color="#e2e1ba"></stop><stop offset="100%" stop-color="#fff8ea"></stop></linearGradient></defs><g><g fill="#acc6ca" transform="matrix(4.173913043478261,0,0,4.173913043478261,5.521757649338767,129.26084839779398)" stroke="#5aa3a6" stroke-width="0.6"><path d="M5.75 0L1.07 0L1.07-14.22L5.65-14.22Q7.54-14.22 9.04-13.36Q10.55-12.51 11.39-10.95Q12.24-9.39 12.25-7.46L12.25-7.46L12.25-6.81Q12.25-4.85 11.42-3.31Q10.60-1.76 9.10-0.88Q7.60-0.01 5.75 0L5.75 0ZM5.65-11.57L4.50-11.57L4.50-2.64L5.69-2.64Q7.17-2.64 7.96-3.69Q8.75-4.74 8.75-6.81L8.75-6.81L8.75-7.42Q8.75-9.48 7.96-10.53Q7.17-11.57 5.65-11.57L5.65-11.57ZM13.45-4.82L13.44-5.38Q13.44-6.96 14.05-8.20Q14.67-9.43 15.82-10.10Q16.97-10.76 18.53-10.76L18.53-10.76Q20.90-10.76 22.27-9.29Q23.63-7.82 23.63-5.29L23.63-5.29L23.63-5.18Q23.63-2.71 22.26-1.25Q20.89 0.20 18.54 0.20L18.54 0.20Q16.29 0.20 14.92-1.16Q13.55-2.51 13.45-4.82L13.45-4.82ZM16.74-5.77L16.73-5.18Q16.73-3.71 17.19-3.03Q17.65-2.34 18.54-2.34L18.54-2.34Q20.30-2.34 20.34-5.05L20.34-5.05L20.34-5.38Q20.34-8.22 18.53-8.22L18.53-8.22Q16.88-8.22 16.74-5.77L16.74-5.77ZM29.55-2.34L29.55-2.34Q30.24-2.34 30.63-2.72Q31.01-3.10 31.00-3.77L31.00-3.77L34.08-3.77Q34.08-2.03 32.84-0.92Q31.59 0.20 29.63 0.20L29.63 0.20Q27.32 0.20 26.00-1.25Q24.67-2.70 24.67-5.25L24.67-5.25L24.67-5.39Q24.67-6.99 25.26-8.22Q25.85-9.44 26.96-10.10Q28.08-10.76 29.60-10.76L29.60-10.76Q31.66-10.76 32.87-9.62Q34.08-8.48 34.08-6.52L34.08-6.52L31.00-6.52Q31.00-7.34 30.60-7.78Q30.20-8.22 29.52-8.22L29.52-8.22Q28.24-8.22 28.03-6.59L28.03-6.59Q27.96-6.07 27.96-5.17L27.96-5.17Q27.96-3.57 28.34-2.96Q28.72-2.34 29.55-2.34ZM41.01-2.97L41.01-2.97Q41.01-3.39 40.57-3.64Q40.13-3.90 38.90-4.17Q37.67-4.44 36.87-4.89Q36.06-5.33 35.64-5.97Q35.22-6.60 35.22-7.42L35.22-7.42Q35.22-8.88 36.43-9.82Q37.63-10.76 39.57-10.76L39.57-10.76Q41.66-10.76 42.93-9.81Q44.20-8.87 44.20-7.32L44.20-7.32L40.90-7.32Q40.90-8.59 39.56-8.59L39.56-8.59Q39.04-8.59 38.69-8.31Q38.34-8.02 38.34-7.59L38.34-7.59Q38.34-7.15 38.77-6.88Q39.20-6.60 40.14-6.43Q41.08-6.25 41.80-6.01L41.80-6.01Q44.18-5.19 44.18-3.07L44.18-3.07Q44.18-1.62 42.90-0.71Q41.61 0.20 39.57 0.20L39.57 0.20Q38.21 0.20 37.15-0.29Q36.08-0.78 35.49-1.62Q34.89-2.46 34.89-3.39L34.89-3.39L37.97-3.39Q37.99-2.66 38.46-2.32Q38.93-1.98 39.66-1.98L39.66-1.98Q40.33-1.98 40.67-2.26Q41.01-2.53 41.01-2.97Z"></path></g></g></svg><style>@media (prefers-color-scheme: light) { :root { filter: none; } }
@media (prefers-color-scheme: dark) { :root { filter: none; } }
</style></svg>